<svg width="32" height="32" viewBox="0 0 32 32" fill="none" xmlns="http://www.w3.org/2000/svg">
<path fill-rule="evenodd" clip-rule="evenodd" d="M16 3.66663C12.729 3.66663 9.59192 4.96603 7.27898 7.27898C4.96603 9.59192 3.66663 12.729 3.66663 16C3.66663 19.271 4.96603 22.408 7.27898 24.7209C9.59192 27.0339 12.729 28.3333 16 28.3333C19.271 28.3333 22.408 27.0339 24.7209 24.7209C27.0339 22.408 28.3333 19.271 28.3333 16C28.3333 12.729 27.0339 9.59192 24.7209 7.27898C22.408 4.96603 19.271 3.66663 16 3.66663ZM1.66663 16C1.66663 8.08396 8.08396 1.66663 16 1.66663C23.916 1.66663 30.3333 8.08396 30.3333 16C30.3333 23.916 23.916 30.3333 16 30.3333C8.08396 30.3333 1.66663 23.916 1.66663 16ZM16 6.99996C16.2652 6.99996 16.5195 7.10532 16.7071 7.29285C16.8946 7.48039 17 7.73474 17 7.99996V8.42263C19.1733 8.81196 21 10.4453 21 12.6666C21 12.9318 20.8946 13.1862 20.7071 13.3737C20.5195 13.5613 20.2652 13.6666 20 13.6666C19.7347 13.6666 19.4804 13.5613 19.2929 13.3737C19.1053 13.1862 19 12.9318 19 12.6666C19 11.7626 18.248 10.804 17 10.4626V15.0893C19.1733 15.4786 21 17.112 21 19.3333C21 21.5546 19.1733 23.188 17 23.5773V24C17 24.2652 16.8946 24.5195 16.7071 24.7071C16.5195 24.8946 16.2652 25 16 25C15.7347 25 15.4804 24.8946 15.2929 24.7071C15.1053 24.5195 15 24.2652 15 24V23.5773C12.8266 23.188 11 21.5546 11 19.3333C11 19.0681 11.1053 18.8137 11.2929 18.6262C11.4804 18.4386 11.7347 18.3333 12 18.3333C12.2652 18.3333 12.5195 18.4386 12.7071 18.6262C12.8946 18.8137 13 19.0681 13 19.3333C13 20.2373 13.752 21.196 15 21.536V16.9106C12.8266 16.5213 11 14.888 11 12.6666C11 10.4453 12.8266 8.81196 15 8.42263V7.99996C15 7.73474 15.1053 7.48039 15.2929 7.29285C15.4804 7.10532 15.7347 6.99996 16 6.99996ZM15 10.4626C13.752 10.804 13 11.7626 13 12.6666C13 13.5706 13.752 14.5293 15 14.8693V10.4626ZM17 17.1293V21.5373C18.248 21.196 19 20.2386 19 19.3333C19 18.4293 18.248 17.4693 17 17.1293Z" fill="black"/>
</svg>
